
      <svg data-logo="logo" xmlns="http://www.w3.org/2000/svg" viewBox="0 0 42 41">
        <g id="logogram" transform="translate(0, 0) rotate(0) "><path fill-rule="evenodd" clip-rule="evenodd" d="M23.4822 1.69633C22.0194 0.234143 19.6482 0.234623 18.1861 1.69742L5.98295 13.9055L5.97255 13.9025L5.93399 13.9066C5.94987 13.9142 5.96546 13.9218 5.98074 13.9294C3.84006 14.1537 2.9318 14.797 2.92152 15.6231C2.92514 15.9304 3.05122 16.2623 3.28281 16.6068L3.27168 16.6179C5.21778 19.5531 14.8587 23.4251 21.6793 20.8017C16.5675 23.3576 4.52892 23.8642 0.992995 18.9016C0.225104 19.7323 -0.0961769 20.824 0.0248128 21.8731C0.958907 27.0216 11.4021 28.4262 21.8454 20.9667L24.1053 23.2266C21.2932 26.1157 17.1394 42.897 23.3115 40.3349C23.4579 40.2355 23.5822 40.1465 23.7512 40.0187L24.0263 39.7589C24.0104 39.7629 23.9947 39.7666 23.979 39.7703L40.5092 24.1648C42.044 22.7158 42.0788 20.2853 40.5859 18.793L23.4822 1.69633ZM21.6821 6.782L22.247 4.52213L22.812 6.782L24.5069 7.34698L22.812 7.91196L22.247 10.1718L21.6821 7.91196L19.9872 7.34698L21.6821 6.782ZM14.6892 14.1593L15.0658 12.6526L15.4424 14.1593L16.5724 14.5359L15.4424 14.9125L15.0658 16.4191L14.6892 14.9125L13.5593 14.5359L14.6892 14.1593ZM27.8072 26.8673L27.4305 28.3738L26.3007 28.7505L27.4305 29.1271L27.8072 30.6336L28.1838 29.1271L29.3138 28.7505L28.1838 28.3738L27.8072 26.8673Z" fill="#4845D2"/><path fill-rule="evenodd" clip-rule="evenodd" d="M41.7822 3.19183C38.2483 3.19183 34.8969 4.76153 32.6344 7.47638L24.5858 17.1349L29.2334 10.1633L21.5187 13.4697C20.5389 13.8896 20.2931 15.1661 21.0467 15.9198L23.5294 18.4024L22.2618 19.9235L25.0505 22.7121L26.5715 21.4445L29.0542 23.9272C29.8079 24.6808 31.0844 24.435 31.5043 23.4554L34.8106 15.7406L27.8391 20.3883L37.4976 12.3395C40.2125 10.0772 41.7822 6.72577 41.7822 3.19183ZM34.1135 10.8607C34.8835 11.6307 36.132 11.6307 36.9021 10.8607C37.6721 10.0906 37.6721 8.84209 36.9021 8.07208C36.132 7.30199 34.8835 7.30199 34.1135 8.07208C33.3434 8.84209 33.3434 10.0906 34.1135 10.8607Z" fill="#A3A2FF"/><path opacity="0.6" d="M0.903381 18.7718C2.74977 25.0977 13.9754 24.7679 21.6773 20.8027C16.52 23.3797 4.3201 23.8719 0.903381 18.7718Z" fill="#424242"/><path opacity="0.6" d="M23.3115 40.3349C18.1107 42.4938 20.2416 30.9184 22.7235 25.4932C20.9144 30.3153 19.3701 40.9455 24.0262 39.759L23.7512 40.0187C23.5821 40.1466 23.4579 40.2355 23.3115 40.3349Z" fill="#424242"/></g>
        <g id="logotype" transform="translate(42, 20.5)"></g>
        
      </svg>
    